<svg xmlns="http://www.w3.org/2000/svg" width="11" height="16" viewBox="0 0 11 16"><defs><style>.a{fill:#0d71e3;}</style></defs><g transform="translate(-2283.14 -1624)"><path class="a" d="M2295.032,1634.6a1.292,1.292,0,0,1-1.292,1.292h-.309a1.294,1.294,0,0,1,0-2.588h.309A1.293,1.293,0,0,1,2295.032,1634.6Z" transform="translate(-4.946 -4.969)"/><path class="a" d="M2288.64,1624a5.612,5.612,0,0,0-1.2,11.067v3.709a1.2,1.2,0,1,0,2.4,0v-3.709a5.612,5.612,0,0,0-1.2-11.067Zm0,8.755a3.157,3.157,0,1,1,3.1-3.154A3.13,3.13,0,0,1,2288.64,1632.756Z" transform="translate(0 0)"/></g></svg>