<svg xmlns="http://www.w3.org/2000/svg" width="100.667" height="36" viewBox="0 0 100.667 36"><defs><style>.a{fill:#231f20;fill-rule:evenodd;}</style></defs><path class="a" d="M360.752,271.912c-6.551,7.643-12.831,17.123-12.9,24.208a8.369,8.369,0,0,0,2.887,6.757,14.064,14.064,0,0,0,9.456,3.438c4.737.007,9.442-1.893,13.125-3.357,6.2-2.465,74.774-32.054,74.774-32.054.662-.329.538-.74-.29-.534-.334.083-74.651,20.095-74.651,20.095a16.486,16.486,0,0,1-4.325.615c-5.711.034-10.794-3.117-10.752-9.755a21.674,21.674,0,0,1,2.671-9.414Z" transform="translate(-347.856 -270.315)"/></svg>