<svg xmlns="http://www.w3.org/2000/svg" width="46" height="46" viewBox="0 0 46 46"><defs><style>.a{fill:none;}.b{fill:#fff;}</style></defs><g transform="translate(-7 -234)"><rect class="a" width="46" height="46" rx="13" transform="translate(7 234)"/><g transform="translate(16 244.001)"><path class="b" d="M23.45,5H10.01L16.92.49a2.989,2.989,0,0,1,4.15.87Z"/><path class="b" d="M24,7a2.006,2.006,0,0,1,2,2V21a2.006,2.006,0,0,1-2,2H4a2.006,2.006,0,0,1-2-2V9A2.006,2.006,0,0,1,4,7H24m0-2H4A4,4,0,0,0,0,9V21a4,4,0,0,0,4,4H24a4,4,0,0,0,4-4V9a4,4,0,0,0-4-4Z"/><path class="b" d="M26,12v6H22a2.006,2.006,0,0,1-2-2V14a2.006,2.006,0,0,1,2-2h4m1-1H22a3,3,0,0,0-3,3v2a3,3,0,0,0,3,3h5V11Z"/><circle class="b" cx="0.5" cy="0.5" r="0.5" transform="translate(22.5 14.5)"/><path class="b" d="M23,14a1,1,0,1,0,1,1,1,1,0,0,0-1-1Z"/></g></g></svg>