<svg xmlns="http://www.w3.org/2000/svg" width="46" height="46" viewBox="0 0 46 46"><defs><style>.a{fill:#0d71e3;}.b{fill:#fff;}</style></defs><g transform="translate(348 -673)"><rect class="a" width="46" height="46" rx="13" transform="translate(-348 673)"/><g transform="translate(-355 4)"><path class="b" d="M-3.884-16.35A9.775,9.775,0,0,1,0-17.143a9.775,9.775,0,0,1,3.884.792,10.046,10.046,0,0,1,3.192,2.132,10.046,10.046,0,0,1,2.132,3.192A9.776,9.776,0,0,1,10-7.143a9.776,9.776,0,0,1-.792,3.884A10.046,10.046,0,0,1,7.076-.067,10.046,10.046,0,0,1,3.884,2.065,9.776,9.776,0,0,1,0,2.857a9.775,9.775,0,0,1-3.884-.792A10.046,10.046,0,0,1-7.076-.067,10.046,10.046,0,0,1-9.208-3.259,9.776,9.776,0,0,1-10-7.143a9.776,9.776,0,0,1,.792-3.884,10.046,10.046,0,0,1,2.132-3.192A10.046,10.046,0,0,1-3.884-16.35ZM4.029-14.71a8.531,8.531,0,0,0-4.029-1,8.531,8.531,0,0,0-4.029,1l2.165,2.165A5.731,5.731,0,0,1,0-12.857a5.731,5.731,0,0,1,1.864.313Zm-11.6,11.6L-5.4-5.279a5.731,5.731,0,0,1-.312-1.864A5.731,5.731,0,0,1-5.4-9.007l-2.165-2.165a8.531,8.531,0,0,0-1,4.029A8.531,8.531,0,0,0-7.567-3.114ZM-4.029.424A8.531,8.531,0,0,0,0,1.429a8.531,8.531,0,0,0,4.029-1L1.864-1.741A5.731,5.731,0,0,1,0-1.429a5.731,5.731,0,0,1-1.864-.312Zm1-4.537A4.129,4.129,0,0,0,0-2.857,4.129,4.129,0,0,0,3.03-4.113a4.129,4.129,0,0,0,1.256-3.03,4.129,4.129,0,0,0-1.256-3.03A4.129,4.129,0,0,0,0-11.429a4.129,4.129,0,0,0-3.03,1.256,4.129,4.129,0,0,0-1.256,3.03A4.129,4.129,0,0,0-3.03-4.113ZM5.4-5.279,7.567-3.114a8.531,8.531,0,0,0,1-4.029,8.531,8.531,0,0,0-1-4.029L5.4-9.007a5.731,5.731,0,0,1,.313,1.864A5.731,5.731,0,0,1,5.4-5.279Z" transform="translate(30 699)"/></g></g></svg>