<svg xmlns="http://www.w3.org/2000/svg" width="46" height="46" viewBox="0 0 46 46"><defs><style>.a,.b{fill:none;}.b{stroke:#fff;stroke-linecap:round;stroke-miterlimit:10;stroke-width:2px;}.c{fill:#fff;}</style></defs><g transform="translate(-7 -101)"><rect class="a" width="46" height="46" rx="13" transform="translate(7 101)"/><g transform="translate(-2921 63.192)"><path class="b" d="M2960.192,50.808a13,13,0,0,1,0,18.384"/><path class="b" d="M2941.808,69.192a13,13,0,0,1,0-18.384"/><path class="b" d="M2956.657,54.343a8,8,0,0,1,0,11.314"/><path class="b" d="M2945.343,65.657a8,8,0,0,1,0-11.314"/><circle class="c" cx="4" cy="4" r="4" transform="translate(2947 56)"/><path class="c" d="M2945.082,74a.993.993,0,0,1-.991-1.131,7,7,0,0,1,13.818,0,.993.993,0,0,1-.991,1.131Z"/></g></g></svg>