<svg xmlns="http://www.w3.org/2000/svg" width="183" height="27" viewBox="0 0 183 27"><defs><style>.a{fill:#012f1b;}.b{fill:#00572d;}.c{fill:#eb1f51;}</style></defs><g transform="translate(0 0)"><path class="a" d="M63.406,34.123c5.063,0,9.543-3.328,9.543-8.966s-4.48-8.966-9.543-8.966-9.543,3.328-9.543,8.966,4.48,8.966,9.543,8.966M30.78,33.764h3.683L25.995,16.522h-3.53L14.638,33.764H17.89l1.689-3.9h9.36Zm91.488-17.215H108.889V33.794h13.656V31.036H112.017v-4.5h8.961V23.777h-8.961V19.311h10.251V16.549Zm-46.9,15.507A10.375,10.375,0,0,0,82,34.126c3.8,0,6.9-2.009,6.9-5.158,0-6.567-9.7-4.47-9.7-8.038,0-1.02.86-1.83,3.1-1.83A8.162,8.162,0,0,1,87.4,20.809l1.29-2.548a10.292,10.292,0,0,0-6.415-2.07c-4.7,0-6.63,2.579-6.63,5.127,0,5.937,9.727,4.229,9.727,7.8,0,1.5-1.533,2.128-3.253,2.128a9.962,9.962,0,0,1-5.646-1.8ZM44.655,19.25a7.061,7.061,0,0,1,4.973,2.159l2.178-2.1a9.125,9.125,0,0,0-7.213-3.118c-5.063,0-9.543,3.328-9.543,8.966s4.418,8.966,9.484,8.966a11.592,11.592,0,0,0,7.4-2.789l-1.748-2.4A9.545,9.545,0,0,1,44.6,31.1a5.928,5.928,0,1,1,.059-11.847m18.75,11.816a5.911,5.911,0,1,1,6.138-5.906,5.917,5.917,0,0,1-6.138,5.906M96.8,19.28V33.767h3.131V19.28H106.1V16.522H90.815V19.28ZM3.131,16.549H0V33.794H12.491V31.036H3.131Zm20.991,3L27.711,27.2H20.776Z" transform="translate(0 -11.287)"/><path class="b" d="M442.7,19.086a3.022,3.022,0,0,0-1.075-.353c-.461-.146-.614-.706-.8-.766-.336-.116-.676.383-.891.323s-.309-.736-.461-.8c-.336-.116-.707.383-.919.323s-.336-.736-.492-.8c-.336-.116-.707.413-.922.353s-.277-.766-.461-.825c-.368-.146-.735.413-1.075.353a3.234,3.234,0,0,1-1.29-.5,3.7,3.7,0,0,1-.551-.413c-.062-.03-.215-.06-.184.236.094.706,1.349,1.208,2.823,1.621a33.921,33.921,0,0,1,3.8,1.178c.551.236.766.529.583.825-.153.206-.52.236-.919.03-.43-.206-.492-.529-.766-.589-.336-.09-.766.529-1.013.473-.336-.09-.368-.766-.676-.855-.4-.09-.86.5-1.106.443-.277-.06-.368-.8-.614-.855-.43-.116-.86.529-1.106.473-.277-.06-.4-.8-.645-.882-.43-.176-.981.443-1.564.146-1.873-1.208-1.533-1.857-2.975-2.267a5.987,5.987,0,0,0-2.209.09c-1.29.116-1.228-.942-1.228-.942a2.727,2.727,0,0,0,1.841-.03,3.769,3.769,0,0,1,2.948,0,3.406,3.406,0,0,0,2.209-.06.649.649,0,0,1,.707.09c.368.236.707.473.891.383.277-.116.184-.855.645-1,.215-.06.829.5,1.075.413.277-.09.184-.855.676-1,.215-.06.829.5,1.075.413.277-.09.184-.855.645-1,.215-.06.829.5,1.075.413s.184-.855.645-1c.215-.06.829.5,1.075.413h0c.246-.09.215-.293.43-.8a.847.847,0,0,1,.215-.293c.309-.236.735-.736.461-1.268-.246-.5-.735-.473-1.779-.266-.891.176-6.506,1.355-6.506,1.355-.86-1.561-1.474-.529-2.76-.679-.829-.09-2.147-.882-4.234.972a3.8,3.8,0,0,0-2.854.353,19.036,19.036,0,0,0-8.226-1.678,41.089,41.089,0,0,0-9.27,1.471c-1.259.323-2.393.236-2.67-.473-.277-.736.707-1.531,2.608-2.416,4.7-2.15,7.827-1.651,14.149-4.86,3.405-1.708,3.62-3.741,3.589-4.241a.3.3,0,0,0-.551-.176c-1.134,1.531-1.443,1.415-1.779,1.062-.461-.443-.8.266-1.29.649-.4.266-.461-.06-.766-.236-.551-.323-.981.649-1.443.855-.52.236-.645-.03-.8-.206a.4.4,0,0,0-.52.03c-1.075.972-1.228.882-1.564.529-.246-.236-.368-.413-1.075.266-.4.383-1.075.855-1.29.353s-.368-.766-1.38.09c-.583.5-.981.559-1.165.323s-.153-.912-1.075-.206c-.829.619-1.259,1-1.533.383-.277-.589-.891-.09-1.349.323-.246.236-.645.766-.981.206-.336-.529-.86.03-1.505.706-.368.383-.614.206-.981-.03-.43-.293-.891.766-1.505,1.385-.121.09-.277.176-.645-.06-.492-.323-1.259,1.295-1.474,1.708-.368.649-.735-.176-1.165.413a10.93,10.93,0,0,0-2.3,5.539c-.336,3.182.891,5.775,2.119,6.747,0,0-.153.353-.336.8a3.632,3.632,0,0,0-.031,2.886c.43.8,1.443,2.12,1.81.855.184-.589.368-.559.95-.146.919.619.676-.5.86-.855.121-.236.277-.323,1.044.146.43.266.583-.09.707-.619.4-1.591-.368-1.974-1.165-2.12a3.889,3.889,0,0,0-1.165-.03c1.228-1.8,1.38-2.8,0-3.711a.7.7,0,0,1,.551.03,1.757,1.757,0,0,1,.8.679,2.348,2.348,0,0,1-.121,2.327,1.876,1.876,0,0,1,1.748,1.062,25.284,25.284,0,0,0,6.232.206c.614-.09.891-.649,1.533-1.178.676-.619,1.474-1.268,2.147-.766a2.794,2.794,0,0,0-2.025,2.473c0,.855.368,1.178,1.013,1.708a3.523,3.523,0,0,1,.95,1.737c.277.706.829.736.95.06.184-.942.461-.766.86-.353.461.5.829.413.829-.293,0-.649.215-1,.981-.236.309.323.676.293.676-.383,0-.825.368-.736.86-.383.184.116.277.206.368.206.368-.03.645-.736.336-1.295-.153-.293-.368-.706-2.334-1.088-.645-.116-.52-.559-.52-.559,4.817.236,8.9-.353,11.569-1.914a50.52,50.52,0,0,0,9.7.825,9.967,9.967,0,0,0,3.776-.529c1.183-.423,1.03-1.128.541-1.425M432.757,11.9a.578.578,0,0,1,.492-.383.6.6,0,0,1,.551.5l-.891.176c-.243.06-.243-.087-.153-.293m-2.3-.09a1.222,1.222,0,0,1,1.075.649s-.919.206-1.321.293a.342.342,0,0,1-.461-.266.713.713,0,0,1,.707-.676m-25.5-5.419a5.323,5.323,0,0,1,1.321-.413c.094,0,.153.03.121.116a9.072,9.072,0,0,0-.215.882c-.031.09-.094.116-.153.09-.336-.176-.707-.323-1.106-.5-.059-.06-.059-.116.031-.176m-2.025.912a5.323,5.323,0,0,1,1.321-.413c.094-.03.153.03.121.09-.062.293-.153.589-.215.882a.1.1,0,0,1-.153.09c-.336-.176-.707-.323-1.106-.5-.062-.03-.062-.09.031-.15m.86,2c.094,0,.153.03.121.116-.062.293-.153.589-.215.882a.1.1,0,0,1-.153.09c-.336-.176-.707-.323-1.106-.5-.094-.03-.094-.09,0-.146a5.627,5.627,0,0,1,1.352-.443m-.829,1.711c-.062.293-.153.589-.215.882-.031.09-.094.116-.153.09-.336-.176-.707-.323-1.106-.5-.094-.03-.094-.09,0-.146a5.323,5.323,0,0,1,1.321-.413c.09-.033.153,0,.153.087m-1.841-2.536a5.322,5.322,0,0,1,1.321-.413c.094,0,.153.03.121.09-.062.293-.153.589-.215.882-.031.09-.094.116-.153.09-.336-.176-.707-.323-1.106-.5-.062-.06-.062-.12.031-.15m-1.38,1.534a5.322,5.322,0,0,1,1.321-.413c.094-.03.153.03.121.09-.094.293-.153.589-.215.882-.031.09-.094.116-.153.09-.336-.176-.707-.323-1.106-.5-.062-.063-.062-.123.031-.15m-.524,1.737a5.323,5.323,0,0,1,1.321-.413c.094-.03.153.03.121.09-.062.293-.153.589-.215.882-.031.09-.094.116-.153.09-.336-.146-.707-.323-1.106-.5-.059-.033-.059-.093.031-.15m.215,1.914c-.094-.03-.094-.116,0-.146a5.322,5.322,0,0,1,1.321-.413c.094,0,.153.03.121.09-.062.293-.153.589-.215.882a.1.1,0,0,1-.153.09c-.309-.15-.676-.326-1.075-.5m2.365,2.15a.1.1,0,0,1-.153.09c-.336-.176-.707-.323-1.106-.5-.094-.03-.094-.09,0-.146a5.18,5.18,0,0,1,1.349-.413c.094-.03.153.03.121.09-.059.29-.121.586-.212.879m-.094-2.623c-.094-.03-.094-.09,0-.146a4.311,4.311,0,0,1,1.321-.413c.094-.03.153.03.121.09-.062.293-.153.589-.215.882-.031.09-.094.116-.153.09-.34-.146-.707-.326-1.075-.5m2.088,3.595a.1.1,0,0,1-.153.09c-.336-.146-.707-.323-1.106-.5-.094-.03-.094-.116,0-.146a5.322,5.322,0,0,1,1.321-.413c.094-.03.153.03.121.09-.031.29-.125.586-.184.879m.43-1.854c-.031.09-.094.116-.153.09-.336-.176-.707-.323-1.106-.5-.094-.03-.094-.116,0-.146a5.18,5.18,0,0,1,1.349-.413c.094-.03.153.03.121.09-.059.29-.121.582-.212.879m1.994.912a9.072,9.072,0,0,0-.215.882.1.1,0,0,1-.153.09c-.336-.176-.707-.323-1.106-.5-.094-.03-.094-.09,0-.146a5.322,5.322,0,0,1,1.321-.413.1.1,0,0,1,.153.087m.09-1c-.336-.176-.707-.323-1.106-.5-.094-.03-.094-.116,0-.146a5.322,5.322,0,0,1,1.321-.413c.094,0,.153.03.121.116-.094.293-.153.589-.215.882,0,.06-.059.09-.121.06m1.689,2.416c-.062.293-.153.589-.215.882-.031.06-.094.116-.153.06-.336-.146-.707-.323-1.106-.5-.094-.03-.094-.09,0-.146a5.322,5.322,0,0,1,1.321-.413c.121-.033.184.027.153.116m.461-1.944a9.064,9.064,0,0,0-.215.882.093.093,0,0,1-.153.06c-.336-.146-.707-.323-1.106-.5-.094-.03-.094-.116,0-.146A5.323,5.323,0,0,1,408.3,15.2a.135.135,0,0,1,.153.116m.246-1.152a.1.1,0,0,1-.153.09c-.336-.146-.707-.323-1.106-.5-.094-.03-.094-.09,0-.146a5.323,5.323,0,0,1,1.321-.413c.094-.03.153.03.121.116a4.939,4.939,0,0,1-.184.852m1.38,3.329c-.031.09-.094.116-.153.09-.336-.176-.707-.323-1.075-.5-.094-.03-.094-.116,0-.146a5.322,5.322,0,0,1,1.321-.413c.094,0,.153.03.121.09a7.3,7.3,0,0,0-.215.879m.43-1.854a.1.1,0,0,1-.153.09c-.336-.176-.707-.323-1.106-.5-.094-.03-.094-.09,0-.146a5.322,5.322,0,0,1,1.321-.413c.094,0,.153.03.121.116-.031.233-.121.529-.184.852m.305-1.884c-.336-.176-.707-.323-1.106-.5-.094-.03-.094-.09,0-.146a5.323,5.323,0,0,1,1.321-.413c.094-.03.153.03.121.09-.062.293-.153.589-.215.882.035.087-.059.113-.121.087m1.814,2.383c-.062.293-.153.589-.215.882a.1.1,0,0,1-.153.09c-.336-.176-.707-.323-1.106-.5-.094-.03-.094-.09,0-.146a5.18,5.18,0,0,1,1.349-.413c.062-.03.125,0,.125.087m.427-1.884c-.062.293-.153.589-.215.882-.031.09-.094.116-.153.06-.336-.146-.707-.323-1.075-.5-.094-.03-.094-.09,0-.146a5.323,5.323,0,0,1,1.321-.413c.062.027.121.057.121.116m.062-.885c-.336-.146-.707-.323-1.106-.5-.094-.03-.094-.116,0-.146a5.323,5.323,0,0,1,1.321-.413c.094-.03.153.03.121.09a9.072,9.072,0,0,0-.215.882c0,.087-.059.146-.121.087m1.751,2.536a9.072,9.072,0,0,0-.215.882c-.031.09-.094.116-.153.09-.336-.176-.707-.323-1.106-.5-.094-.03-.094-.09,0-.146a5.322,5.322,0,0,1,1.321-.413c.121-.033.18.027.153.087m.43-1.857c-.062.293-.153.589-.215.882-.031.06-.094.116-.153.06-.336-.146-.707-.323-1.106-.5-.094-.03-.094-.116,0-.146a5.322,5.322,0,0,1,1.321-.413c.121,0,.18.057.153.116m.212-.912a.1.1,0,0,1-.153.09c-.336-.176-.707-.323-1.106-.5-.094-.03-.094-.09,0-.146a5.323,5.323,0,0,1,1.321-.413c.094,0,.153.03.121.116-.028.233-.121.526-.184.852m1.6,2.856a9.064,9.064,0,0,0-.215.882.1.1,0,0,1-.153.09c-.336-.176-.707-.323-1.075-.5-.094-.03-.094-.116,0-.146a5.323,5.323,0,0,1,1.321-.413c.09-.03.153,0,.121.087m.43-1.884c-.062.293-.153.589-.215.882-.031.09-.094.116-.153.09-.336-.176-.707-.323-1.106-.5-.094-.03-.094-.09,0-.146a5.322,5.322,0,0,1,1.321-.413c.121-.033.18.027.153.087m.427-1.827c-.062.293-.153.589-.215.882-.031.09-.094.116-.153.09-.336-.176-.707-.323-1.075-.5-.094-.03-.094-.09,0-.146a5.18,5.18,0,0,1,1.349-.413c.066-.03.125.027.094.087M419.5,15.4a.1.1,0,0,1-.153.09c-.336-.146-.707-.323-1.106-.5-.094-.03-.094-.116,0-.146a4.311,4.311,0,0,1,1.321-.413c.094-.03.153.03.121.09-.062.29-.121.586-.184.879m.645-2.769c-.062.293-.153.589-.215.882-.031.09-.094.116-.153.09-.336-.176-.707-.323-1.106-.5-.094-.03-.094-.116,0-.146a5.322,5.322,0,0,1,1.321-.413c.121-.03.184,0,.153.087m2.056.679c-.062.293-.153.589-.215.882-.031.09-.094.116-.153.09-.336-.176-.707-.323-1.106-.5-.094-.03-.094-.09,0-.146a5.322,5.322,0,0,1,1.321-.413c.121-.033.184.027.153.087" transform="translate(-260.067 0)"/><path class="c" d="M486.4,44.813a3.626,3.626,0,0,0-2.948,0,2.645,2.645,0,0,1-1.841.031s-.062,1.106,1.228.981a5.253,5.253,0,0,1,2.209-.094c1.443.43,1.075,1.075,2.975,2.362.583.305,1.134-.336,1.564-.153.215.094.368.86.645.919s.707-.583,1.106-.492c.246.062.336.86.614.919s.707-.551,1.106-.461c.305.094.336.8.676.891.277.062.707-.583,1.044-.492.277.062.305.4.766.614.4.184.766.184.919-.062.184-.305-.031-.583-.583-.86a37.794,37.794,0,0,0-3.8-1.228c-1.474-.43-2.733-.95-2.823-1.689-.031-.305.121-.277.184-.246-.551-.43-.676-.8-.645-1.044h0c-.062,0-.094.031-.153.062a3.39,3.39,0,0,1-2.24.042" transform="translate(-315.703 -29.838)"/></g></svg>