<svg xmlns="http://www.w3.org/2000/svg" width="46" height="46" viewBox="0 0 46 46"><defs><style>.a{fill:#0d71e3;}.b{fill:#fff;}</style></defs><g transform="translate(348 -609)"><rect class="a" width="46" height="46" rx="13" transform="translate(-348 609)"/><g transform="translate(-354)"><path class="b" d="M2.424-6.147a3.3,3.3,0,0,0,1-2.424,3.3,3.3,0,0,0-1-2.424A3.3,3.3,0,0,0,0-12a3.3,3.3,0,0,0-2.424,1,3.3,3.3,0,0,0-1,2.424,3.3,3.3,0,0,0,1,2.424A3.3,3.3,0,0,0,0-5.143,3.3,3.3,0,0,0,2.424-6.147Zm7.862-3.884v2.973a.516.516,0,0,1-.107.308.408.408,0,0,1-.268.174L7.433-6.2a8.581,8.581,0,0,1-.522,1.219q.469.67,1.433,1.848a.518.518,0,0,1,.134.335.447.447,0,0,1-.121.308A13.609,13.609,0,0,1,7.031-1.045q-.964.951-1.259.951a.654.654,0,0,1-.348-.121L3.576-1.661a7.641,7.641,0,0,1-1.219.509,21.9,21.9,0,0,1-.388,2.491.451.451,0,0,1-.482.375H-1.487A.506.506,0,0,1-1.815,1.6a.4.4,0,0,1-.154-.288l-.375-2.464a8.277,8.277,0,0,1-1.205-.5L-5.437-.214a.482.482,0,0,1-.335.121.461.461,0,0,1-.335-.147,17.677,17.677,0,0,1-2.21-2.25A.524.524,0,0,1-8.411-2.8.516.516,0,0,1-8.3-3.107q.2-.281.683-.891t.723-.944a6.627,6.627,0,0,1-.549-1.326L-9.9-6.629a.422.422,0,0,1-.281-.167.507.507,0,0,1-.107-.315v-2.973a.516.516,0,0,1,.107-.308.4.4,0,0,1,.254-.174l2.491-.375a6.616,6.616,0,0,1,.522-1.232q-.536-.763-1.433-1.848a.5.5,0,0,1-.134-.321.565.565,0,0,1,.121-.308,13.3,13.3,0,0,1,1.319-1.44q.971-.958,1.266-.958a.57.57,0,0,1,.348.134l1.848,1.433a7.642,7.642,0,0,1,1.219-.509,21.905,21.905,0,0,1,.388-2.491.451.451,0,0,1,.482-.375H1.487a.506.506,0,0,1,.328.114.4.4,0,0,1,.154.288l.375,2.464a8.278,8.278,0,0,1,1.205.5l1.9-1.433a.434.434,0,0,1,.321-.121.518.518,0,0,1,.335.134,18.32,18.32,0,0,1,2.21,2.277.432.432,0,0,1,.094.295.516.516,0,0,1-.107.308q-.2.281-.683.891T6.9-12.2a8.069,8.069,0,0,1,.549,1.313l2.451.375a.422.422,0,0,1,.281.167A.507.507,0,0,1,10.286-10.031Z" transform="translate(29 641)"/></g></g></svg>