<svg xmlns="http://www.w3.org/2000/svg" width="146" height="36" viewBox="0 0 146 36"><g transform="translate(9.99 24.321)"><path d="M114.137,278.609a7.511,7.511,0,0,0,1.982-.24,3.232,3.232,0,0,0,1.657-.934,1.263,1.263,0,0,0,.3-.77.309.309,0,0,0-.121-.246.847.847,0,0,0-.351-.147,3.124,3.124,0,0,0-.968-.009,7.481,7.481,0,0,0-1.012.2,12.384,12.384,0,0,0-1.971.722,16.1,16.1,0,0,0-1.848.992,3.827,3.827,0,0,0,.421.16A6.554,6.554,0,0,0,114.137,278.609Z" transform="translate(-111.8 -276.23)"/></g><g transform="translate(5.297 14.1)"><path d="M89.065,164.3a26.833,26.833,0,0,1-3.639,2.475,20.624,20.624,0,0,1-4.063,1.773,15.769,15.769,0,0,1-4.427.738,14.071,14.071,0,0,1-2.259-.153,13.775,13.775,0,0,1-2.212-.506,9.112,9.112,0,0,1-2.109-.976,5.675,5.675,0,0,1-1.734-1.691,4.945,4.945,0,0,1-.331-.628c-.475.313-.949.628-1.41.961a37.157,37.157,0,0,0-3.346,2.615,8.848,8.848,0,0,0-1.362,1.5,2.4,2.4,0,0,0-.374.8.72.72,0,0,0,.13.639.953.953,0,0,0,.088.093A6.259,6.259,0,0,1,63,170.9a10.787,10.787,0,0,1,1.873-1.25,14.249,14.249,0,0,1,2.034-.889,10.235,10.235,0,0,1,2.167-.542,3.77,3.77,0,0,1,1.184.013,1.407,1.407,0,0,1,.635.291.981.981,0,0,1,.248.322,1.207,1.207,0,0,1,.105.357,1.284,1.284,0,0,1-.122.707,2.224,2.224,0,0,1-.36.524,4.624,4.624,0,0,1-.9.74,11.306,11.306,0,0,1-1.989,1,16.283,16.283,0,0,1-2.1.674,12.043,12.043,0,0,1-2.206.347,4.975,4.975,0,0,1-.962-.048c0,.012-.012.023-.015.035a1.407,1.407,0,0,0,.309,1.444,3.1,3.1,0,0,0,.377.36,18.422,18.422,0,0,1,2.263-1.186,14.729,14.729,0,0,1,2.086-.726,8.159,8.159,0,0,1,1.1-.211,3.755,3.755,0,0,1,1.179.027,1.452,1.452,0,0,1,.625.285,1,1,0,0,1,.356.687,1.612,1.612,0,0,1-.1.666,2.482,2.482,0,0,1-.288.566,4.464,4.464,0,0,1-1.905,1.389,7.227,7.227,0,0,1-2.242.548,6.07,6.07,0,0,1-2.344-.254,4.615,4.615,0,0,1-1.121-.533c-.016-.012-.029-.024-.046-.035-.192.145-.385.289-.569.441a10.962,10.962,0,0,0-1.69,2.157c-.046.079-.1.155-.141.234a8.018,8.018,0,0,0-.6,1.364c0,.009-.005.019-.009.028a13.926,13.926,0,0,0-.39,1.441,7.328,7.328,0,0,0-.168,1.459,2.732,2.732,0,0,0,.258,1.266,1.249,1.249,0,0,0,.843.639,3.018,3.018,0,0,0,1.3-.025,8.69,8.69,0,0,0,2.69-1.152c.165-.1.327-.214.488-.325a13.428,13.428,0,0,0,1.868-1.54c.14-.137.273-.279.406-.422.207-.223.408-.452.593-.692a8.065,8.065,0,0,0,.814-1.231,4.393,4.393,0,0,0,.578-2.779v-.005a.279.279,0,0,1,.535-.145,3.782,3.782,0,0,1,.221,1.7,5.62,5.62,0,0,1-.424,1.655,8.526,8.526,0,0,1-.812,1.472,11.774,11.774,0,0,1-1.049,1.289,13.479,13.479,0,0,1-1.371,1.234,18.257,18.257,0,0,0,23.9-20.875C89.772,163.7,89.424,164.006,89.065,164.3Z" transform="translate(-59.28 -163.39)"/></g><g transform="translate(4.484 15.656)"><path d="M53.35,178.047a3.171,3.171,0,0,0-1.728.8,4.238,4.238,0,0,0-1.187,1.629,2.731,2.731,0,0,0-.163,1.82,1.426,1.426,0,0,0,.17.34,1.034,1.034,0,0,0,.252.236,1.357,1.357,0,0,0,.741.2,2.788,2.788,0,0,0,1.806-.692,2.951,2.951,0,0,0,.582-.86c.085-.147.18-.284.264-.43a4.841,4.841,0,0,0,.22-.449,2.862,2.862,0,0,0,.241-1.81A1.055,1.055,0,0,0,53.35,178.047Z" transform="translate(-50.18 -178.042)"/></g><g transform="translate(9.054 19.754)"><path d="M107.782,226.224a3.947,3.947,0,0,0,.771-.618.949.949,0,0,0,.323-.7.531.531,0,0,0-.044-.158.316.316,0,0,0-.081-.1.764.764,0,0,0-.34-.141,3.134,3.134,0,0,0-.962,0,10.755,10.755,0,0,0-3.855,1.515,9.779,9.779,0,0,0-1.64,1.238,5.484,5.484,0,0,0-.625.7,4.711,4.711,0,0,0,.506.019,10.242,10.242,0,0,0,2.056-.265A12.652,12.652,0,0,0,107.782,226.224Z" transform="translate(-101.33 -224.475)"/></g><path d="M7.736,27.256l.018-.017.009-.007c.157-.121.32-.231.481-.345a3.194,3.194,0,0,1-.271-.288A2.729,2.729,0,0,1,7.4,25.365a2.522,2.522,0,0,1,.149-1.358c.01-.023.023-.043.033-.066a1.983,1.983,0,0,1-.333-.3,1.588,1.588,0,0,1-.342-.66,1.76,1.76,0,0,1-.021-.724,3.057,3.057,0,0,1,.362-.969,3.588,3.588,0,0,1-1.532.675,1.978,1.978,0,0,1-1.35-.265,1.914,1.914,0,0,1-.541-.5,2.207,2.207,0,0,1-.306-.634,2.926,2.926,0,0,1-.061-1.289,4.51,4.51,0,0,1,.366-1.149,5.948,5.948,0,0,1,1.4-1.866A3.932,3.932,0,0,1,7.4,15.237a2.121,2.121,0,0,1,1.321.29,1.94,1.94,0,0,1,.53.483,2.308,2.308,0,0,1,.312.617,2.933,2.933,0,0,1,.1,1.28,4.124,4.124,0,0,1-.214.842c.877-.793,1.8-1.517,2.71-2.226.581-.457,1.179-.894,1.79-1.314-.016-.137-.036-.273-.041-.41a6.562,6.562,0,0,1,.4-2.347,11.016,11.016,0,0,1,1.007-2.045,16.934,16.934,0,0,1,1.3-1.817A25.652,25.652,0,0,1,19.7,5.443a26.991,26.991,0,0,1,3.526-2.617c.158-.1.319-.189.483-.28s.317-.173.526-.265a1.526,1.526,0,0,1,.746-.121,1.4,1.4,0,0,1,.714.287,2.247,2.247,0,0,1,.728,1.09,4.1,4.1,0,0,1,.2,1.176A6.264,6.264,0,0,1,25.07,8.9a.3.3,0,0,1-.46-.371,5.747,5.747,0,0,0,1.232-3.777,3.365,3.365,0,0,0-.2-.936,1.425,1.425,0,0,0-.464-.669.536.536,0,0,0-.581-.031c-.118.058-.285.154-.426.239s-.294.182-.44.278A28.032,28.032,0,0,0,20.41,6.243,24.517,24.517,0,0,0,17.536,9.32a12.987,12.987,0,0,0-2.027,3.552,5.492,5.492,0,0,0-.3,1.529c.188-.118.37-.247.558-.361,1.245-.76,2.524-1.464,3.837-2.1a49.144,49.144,0,0,1,8.139-3.11c.7-.189,1.4-.383,2.1-.563s1.406-.346,2.113-.5c.355-.074.709-.151,1.063-.226A18.215,18.215,0,0,0,18.26,0h-.022A18.244,18.244,0,0,0,5.1,30.9a8.792,8.792,0,0,1,.557-1.112A11.628,11.628,0,0,1,7.736,27.256ZM2.609,12.54c.164-.342.814-.365,1.447-.058a2.3,2.3,0,0,1,.458.3C6.108,13.891,6,14.814,6,14.814a2.315,2.315,0,0,0-1.136-1.1c-.208.281-.818.288-1.413,0C2.822,13.406,2.442,12.879,2.609,12.54Zm-.523,3.253c-.4-.051-.694-.267-.664-.483s.373-.342.769-.288a1.172,1.172,0,0,1,.3.079c1.019.3,1.156.8,1.16.827a1.3,1.3,0,0,0-.808-.387C2.787,15.732,2.459,15.844,2.086,15.793Z"/><g transform="translate(15.433 7.301)"><path d="M196.509,83.709a1.773,1.773,0,0,0-.842-.294,6.419,6.419,0,0,0-2.032.153c-.691.155-1.393.322-2.085.5-.237.06-.472.126-.708.19-.454.124-.908.251-1.363.374-.688.195-1.368.414-2.052.619-.215.07-.429.143-.642.214l-1.387.463c-2.686.957-5.328,2.01-7.894,3.22a54.025,54.025,0,0,0-4.786,2.615,3.451,3.451,0,0,0,.315.623,5.843,5.843,0,0,0,3.152,2.09,13.013,13.013,0,0,0,4.03.571,19.423,19.423,0,0,0,7.945-2.2c.2-.1.388-.2.581-.3a25.739,25.739,0,0,0,3.032-1.876c.485-.352.958-.724,1.417-1.11a18.408,18.408,0,0,0,1.761-1.669,11.44,11.44,0,0,0,1.269-1.658,5.59,5.59,0,0,0,.449-.911,2.382,2.382,0,0,0,.179-.919A.856.856,0,0,0,196.509,83.709Z" transform="translate(-172.72 -83.386)"/></g><g transform="translate(46.007 3.486)"><path d="M533.8,52.639l-1.418-5.62h-.1l-1.418,5.62h-4.135L523.53,40.92h3.706l1.656,6.509h.07l1.674-6.509h3.672l1.641,6.509h.067l1.658-6.509h3.364L537.86,52.639Z" transform="translate(-523.53 -40.749)"/><path d="M736.271,52.639V48.077H733.5v4.562h-3.6V40.92h3.587v4.322h2.769V40.92h3.6V52.639Z" transform="translate(-711.46 -40.749)"/><path d="M864.065,43.431V50.11h1.384v2.528H859.06V50.11h1.384V43.431H859.06V40.92h6.389v2.511Z" transform="translate(-829.079 -40.749)"/><path d="M945.224,49.888h4.629v2.75H940.1V51.6l4.578-7.944h-4.169V40.92h9.207v1.042Z" transform="translate(-902.877 -40.749)"/><path d="M1061.386,49.888h4.629v2.75h-9.756V51.6l4.578-7.944h-4.167V40.92h9.207v1.042Z" transform="translate(-1008.658 -40.749)"/><path d="M1190.16,43.789a2.559,2.559,0,0,1-1.967,2.733v.068a2.683,2.683,0,0,1,2.238,2.921,3.188,3.188,0,0,1-3.245,3.127h-6.526V40.92h6.423A2.97,2.97,0,0,1,1190.16,43.789Zm-6.2,1.623h1.964a.846.846,0,0,0,.854-.854v-.29a.846.846,0,0,0-.854-.854h-1.964Zm0,4.511h2.171a.847.847,0,0,0,.854-.854v-.307a.847.847,0,0,0-.854-.854h-2.171Z" transform="translate(-1121.942 -40.749)"/><path d="M1309.53,43.619v1.708h4.748v2.614h-4.748v1.9h4.938l.341,2.8h-8.8V40.92h8.8l-.341,2.7h-4.938Z" transform="translate(-1236.092 -40.749)"/><path d="M1424.18,43.619v1.708h4.748v2.614h-4.748v1.9h4.938l.342,2.8h-8.8V40.92h8.8l-.342,2.7h-4.938Z" transform="translate(-1340.497 -40.749)"/><path d="M1538.245,42.6V42.8h-3.281v-.068c0-.6-.393-1.128-1.418-1.128-.973,0-1.418.29-1.418.718,0,.564.7.82,1.641,1.025l1.522.341c1.589.358,3.177,1.2,3.177,3.3,0,2.9-2.1,4.083-5.212,4.083-2.6,0-5-1.162-5-3.758v-.2a.941.941,0,0,1,.015-.206h3.315a.673.673,0,0,0-.018.206c0,.615.36,1.213,1.589,1.213,1.384,0,1.625-.358,1.625-.734,0-1.657-6.27-.256-6.27-4.851,0-2.477,2.238-3.724,4.971-3.724C1536.091,39.009,1538.245,40.12,1538.245,42.6Z" transform="translate(-1438.474 -39.01)"/></g><g transform="translate(46.261 23.544)"><path d="M525.987,270.74c1.949,0,3.072,1.06,3.072,2.8v1.928c0,1.737-1.123,2.8-3.072,2.8h-2.236c-.158,0-.212-.053-.212-.212v-7.1c0-.159.055-.212.212-.212h2.236Zm2.3,2.8c0-1.324-.815-2.076-2.3-2.076H524.3v6.081h1.684c1.482,0,2.3-.752,2.3-2.077Z" transform="translate(-523.54 -270.592)"/><path d="M601,270.962c0-.159.052-.212.21-.212h.352c.158,0,.2.053.2.212v7.1c0,.159-.041.212-.2.212h-.352c-.158,0-.21-.053-.21-.212Z" transform="translate(-594.079 -270.601)"/><path d="M631.163,272.852c.161,0,.212.053.212.212v1.3c0,1.557-1.048,2.532-2.9,2.532-1.874,0-2.911-1.007-2.911-2.67v-2.489c0-1.663,1.028-2.659,2.9-2.659,1.579,0,2.438.593,2.818,1.811.055.159.034.223-.127.275l-.329.116a.211.211,0,0,1-.274-.127,1.854,1.854,0,0,0-2.088-1.366c-1.4,0-2.14.709-2.14,1.939v2.5c0,1.239.763,1.96,2.151,1.96,1.366,0,2.151-.709,2.151-1.822v-.794h-2.044c-.158,0-.212-.053-.212-.212v-.3c0-.159.055-.212.212-.212Z" transform="translate(-616.444 -269.08)"/><path d="M705.75,270.962c0-.159.052-.212.21-.212h.352c.158,0,.2.053.2.212v7.1c0,.159-.041.212-.2.212h-.352c-.158,0-.21-.053-.21-.212Z" transform="translate(-689.469 -270.601)"/><path d="M730.345,270.74c.158,0,.212.053.212.212v.3c0,.159-.055.212-.212.212H728.2v6.589c0,.159-.052.212-.212.212h-.349c-.158,0-.212-.053-.212-.212V271.46h-2.14c-.158,0-.212-.053-.212-.212v-.3c0-.159.055-.212.212-.212Z" transform="translate(-707.071 -270.592)"/><path d="M787.255,277.742c.055.138.013.2-.147.2H786.8q-.334,0-.381-.19l-.794-2.013h-3.315l-.794,2.013c-.044.159-.116.19-.373.19h-.285c-.147,0-.191-.063-.137-.2l2.839-7.172a.255.255,0,0,1,.264-.18h.318a.259.259,0,0,1,.274.17Zm-3.112-5.89a2.4,2.4,0,0,1-.147-.731h-.055a2.38,2.38,0,0,1-.127.731l-1.281,3.253h2.88Z" transform="translate(-757.719 -270.273)"/><path d="M864.432,270.74c.158,0,.2.053.2.212v6.589h3.592c.137,0,.2.074.2.212v.3c0,.138-.064.212-.2.212H864.08c-.158,0-.21-.053-.21-.212v-7.1c0-.159.052-.212.21-.212Z" transform="translate(-833.46 -270.592)"/><path d="M947.145,277.742c.055.138.013.2-.147.2h-.308q-.334,0-.381-.19l-.794-2.013H942.2l-.794,2.013c-.044.159-.116.19-.373.19h-.285c-.147,0-.191-.063-.137-.2l2.839-7.172a.255.255,0,0,1,.264-.18h.318a.259.259,0,0,1,.274.17Zm-3.112-5.89a2.4,2.4,0,0,1-.147-.731h-.055a2.378,2.378,0,0,1-.127.731l-1.281,3.253h2.88Z" transform="translate(-903.322 -270.273)"/><path d="M1024.965,272.852c.158,0,.212.053.212.212v1.3c0,1.557-1.051,2.532-2.9,2.532-1.877,0-2.914-1.007-2.914-2.67v-2.489c0-1.663,1.028-2.659,2.9-2.659,1.579,0,2.435.593,2.818,1.811.052.159.031.223-.127.275l-.329.116a.214.214,0,0,1-.277-.127,1.85,1.85,0,0,0-2.086-1.366c-1.4,0-2.14.709-2.14,1.939v2.5c0,1.239.763,1.96,2.151,1.96,1.366,0,2.151-.709,2.151-1.822v-.794h-2.044c-.161,0-.212-.053-.212-.212v-.3c0-.159.052-.212.212-.212Z" transform="translate(-975.056 -269.08)"/><path d="M1104.052,270.74c.137,0,.2.074.2.212v.3c0,.138-.064.212-.2.212h-3.74v2.627h3.263c.137,0,.2.074.2.212v.3c0,.138-.063.212-.2.212h-3.263v2.733h3.876c.137,0,.2.074.2.212v.3c0,.138-.064.212-.2.212h-4.427c-.158,0-.212-.053-.212-.212v-7.1c0-.159.055-.212.212-.212Z" transform="translate(-1048.081 -270.592)"/><path d="M1172.993,270.74c.161,0,.212.053.212.212v7.1c0,.159-.052.212-.212.212h-.339a.239.239,0,0,1-.223-.116l-3.379-4.852a10,10,0,0,1-.507-.89c-.191-.371-.308-.572-.339-.625h-.041c0,.053.021.307.063.752s.055.816.055,1.123v4.4c0,.138-.064.212-.2.212h-.329c-.158,0-.212-.053-.212-.212v-7.1c0-.159.055-.212.212-.212h.339a.255.255,0,0,1,.222.106l3.295,4.756c.158.233.349.541.561.921s.329.6.381.678h.034c0-.074-.021-.339-.064-.805s-.062-.847-.062-1.165v-4.291c0-.138.072-.2.21-.2Z" transform="translate(-1109.995 -270.592)"/><path d="M1247.02,271.739c0-1.663,1.028-2.659,2.9-2.659,1.579,0,2.438.593,2.818,1.811.054.159.034.223-.127.275l-.329.116a.211.211,0,0,1-.274-.127,1.854,1.854,0,0,0-2.088-1.366c-1.387,0-2.129.709-2.129,1.939v2.521c0,1.218.763,1.938,2.129,1.938a1.866,1.866,0,0,0,2.109-1.4.211.211,0,0,1,.274-.138l.329.128a.189.189,0,0,1,.127.264,2.568,2.568,0,0,1-2.839,1.854c-1.853,0-2.9-1-2.9-2.659Z" transform="translate(-1182.374 -269.08)"/><path d="M1322.3,270.74c.137,0,.191.1.106.212l-2.766,4.259v2.839c0,.159-.052.212-.212.212h-.349c-.158,0-.21-.053-.21-.212V275.2l-2.766-4.248c-.086-.117-.031-.212.106-.212h.435c.254,0,.318.021.4.191l2.215,3.486,2.236-3.486c.086-.17.147-.191.4-.191Z" transform="translate(-1245.244 -270.592)"/></g></svg>